<svg width="512" height="512" viewBox="0 0 512 512" fill="none" xmlns="http://www.w3.org/2000/svg">
<circle cx="256" cy="256" r="256" fill="#32328E"/>
<path d="M256 512C397.385 512 512 397.385 512 256C512 114.615 397.385 0 256 0C114.615 0 0 114.615 0 256C0 397.385 114.615 512 256 512Z" fill="url(#paint0_linear_1_2)"/>
<path d="M256 480C379.019 480 480 379.019 480 256C480 132.981 379.019 32 256 32C132.981 32 32 132.981 32 256C32 379.019 132.981 480 256 480Z" fill="#FFFFFF"/>
<path d="M256 448C362.01 448 448 362.01 448 256C448 149.99 362.01 64 256 64C149.99 64 64 149.99 64 256C64 362.01 149.99 448 256 448Z" fill="#B91C1C"/>
<path d="M256 426.667C350.058 426.667 426.667 350.058 426.667 256C426.667 161.942 350.058 85.3333 256 85.3333C161.942 85.3333 85.3333 161.942 85.3333 256C85.3333 350.058 161.942 426.667 256 426.667Z" fill="#FFFFFF"/>
<path d="M256 384C326.091 384 384 326.091 384 256C384 185.909 326.091 128 256 128C185.909 128 128 185.909 128 256C128 326.091 185.909 384 256 384Z" fill="#32328E"/>
<path d="M256 160L320 256L256 352L192 256L256 160Z" fill="#FBBF24"/>
<defs>
<linearGradient id="paint0_linear_1_2" x1="256" y1="0" x2="256" y2="512" gradientUnits="userSpaceOnUse">
<stop stop-color="#4742DE"/>
<stop offset="1" stop-color="#32328E"/>
</linearGradient>
</defs>
</svg>
